# xmcd
#
# Track frame offsets:
#	183
#	16108
#	31720
#	39645
#	53583
#	64870
#	76683
#	85208
#	93958
#	106620
#	119983
#	133383
#	144695
#	156083
#	170395
#	183808
#	195970
#	208520
#
# Disc length: 2935 seconds
#
# Revision: 0
# Processed by: cddbd v1.4PL0 Copyright (c) Steve Scherf et al.
# Submitted via: MusicManager 7.0.3.0 
#
DISCID=e20b7512
DTITLE=Diddley, Bo - Bo's a lumberjack
DYEAR=1992
DGENRE=blues
TTITLE0=Bo's a lumberjack
TTITLE1=Cops and robbers
TTITLE2=Travelin' west (a.k.a. Mule train)
TTITLE3=Before you accuse me
TTITLE4=Diddy wah diddy
TTITLE5=Signifying blues
TTITLE6=Gunslinger
TTITLE7=Run Diddley daddy
TTITLE8=The story of Bo Diddley
TTITLE9=The clock strikes twelve
TTITLE10=I'm bad
TTITLE11=Huckleberry bush
TTITLE12=Say bossman
TTITLE13=Down home special
TTITLE14=Sick and tired
TTITLE15=Don't let it go
TTITLE16=Bucket
TTITLE17=Live my life
EXTD=
EXTT0=
EXTT1=
EXTT2=
EXTT3=
EXTT4=
EXTT5=
EXTT6=
EXTT7=
EXTT8=
EXTT9=
EXTT10=
EXTT11=
EXTT12=
EXTT13=
EXTT14=
EXTT15=
EXTT16=
EXTT17=
PLAYORDER=
